<svg xmlns="http://www.w3.org/2000/svg" width="24" height="24" viewBox="0 0 24 24" fill="none" stroke="currentColor" stroke-width="2" stroke-linecap="round" stroke-linejoin="round" class="lucide lucide-penguin">
  <path d="M12 2a7 7 0 0 1 7 7v11a2 2 0 0 1-2 2H7a2 2 0 0 1-2-2V9a7 7 0 0 1 7-7z" />
  <path d="M19 12l2 3" />
  <path d="M5 12l-2 3" />
  <path d="M11 11h2l-1 2z" />
  <circle cx="9" cy="9" r="1" />
  <circle cx="15" cy="9" r="1" />
  <path d="M8 22v-3" />
  <path d="M16 22v-3" />
</svg>
